#!OML:ASF F:\VICON\USERDATA\INSTALL\rory3\rory3.ASF
:FULLY-SPECIFIED
:DEGREES
46
root -0.157551385894667 17.790214872648857 7.023006118827478 -2.288448752397503 -8.238532780489479 -2.2732655665379773
lfemur -2.628890022865045 1.8889632789277144 -16.008004241188168
ltibia 48.85823369583756
lfoot -2.2653557486743967 -3.010388098108321
ltoes -2.2545799246347666
rfemur -16.625164628047003 6.255223013525863 27.365432430814387
rtibia 36.89687197033
rfoot -21.580112350295508 -9.782037983174034
rtoes -0.6790177270471385
lowerback 10.601228229625047 0.3582351247440615 -0.0684925662176028
upperback 0.3275234133406682 0.3705822986946212 1.6224607511326279
thorax -5.657985477497281 0.27637284553867686 1.9880457548727624
lowerneck -16.497097251445428 -2.7646472317151387 -1.5508728478480565
upperneck 21.890095117758005 -3.400671371366242 -0.1047430686684615
head 9.764055401103734 -1.7123277563095172 -0.20840865100549785
lclavicle -3.616362944355431e-16 5.8035628883123345e-16
lhumerus -28.80563221094465 1.7563872195446981 80.83957752682933
lradius 22.314254637157543
lwrist 7.204910935551619
lhand -28.78830511371986 19.670809738498164
lfingers 7.12502
lthumb -2.4092107686747717 49.354267057795
rclavicle -3.6163629434259835e-16 5.803562888938274e-16
rhumerus -27.684815200418928 -20.476851398898404 -75.89724225353775
rradius 30.519721617922656
rwrist 4.309452847629702
rhand -17.952033613937974 21.24999661982368
rfingers 7.12502
rthumb 8.825575808730884 -7.882988603725842
47
root -0.13475310038508403 17.789804943094577 7.533681774428208 -2.4352462579394185 -8.14891487364237 -2.286023065334462
lfemur -3.972722543312141 2.0353626443932367 -15.633555452493674
ltibia 50.64949582281204
lfoot -3.234586062094145 -2.8316033904210087
ltoes -4.234459296230495
rfemur -15.705722269245191 6.454141987506621 27.65708744412382
rtibia 35.8024737723416
rfoot -21.748030569207618 -9.960979733718332
rtoes -0.010662639496489046
lowerback 10.617244787511753 0.41423052788239445 0.11717942412849647
upperback 0.3664018696702027 0.4686475038950474 1.6549333222392404
thorax -5.63828013181402 0.3373935461159749 1.8955107124319917
lowerneck -16.52235623250354 -2.7979649368274813 -1.51021284852248
upperneck 21.728742280843452 -3.465478131289299 -0.10397842201182339
head 9.695752132051084 -1.7433650768834172 -0.24218727568059598
lclavicle -3.6163629443475175e-16 5.803562888317684e-16
lhumerus -29.45414532530215 2.3842189502842412 80.86508846422409
lradius 21.604191212295646
lwrist 7.399658019377623
lhand -28.82359530805424 19.20860856149259
lfingers 7.12502
lthumb -2.481110872693236 48.77523105717283
rclavicle -3.6163629434903683e-16 5.803562888894888e-16
rhumerus -26.77195493963202 -19.283685915341195 -76.1153896228794
rradius 30.635225763432647
rwrist 4.427657243220721
rhand -18.01580467580818 21.32546138578791
rfingers 7.12502
rthumb 8.729640511706842 -7.825530647334457
48
root -0.11145044875341936 17.799817012214838 8.248648842535268 -2.290927160245378 -7.824985568381445 -2.764377952045389
lfemur -5.563935721838728 2.267637277995167 -14.89416265276549
ltibia 52.375873566620626
lfoot -4.14535579492079 -2.7355585022338076
ltoes -5.1192812731417465
rfemur -14.536888653991738 6.646927550840009 28.196341374235708
rtibia 34.421843413845245
rfoot -21.90222267750984 -10.187438345153584
rtoes -1.1725023904966383
lowerback 10.617633824339917 0.47159731763611423 0.7074710132684641
upperback 0.37137290788681143 0.6636164173360678 1.7083053262423924
thorax -5.707671600001791 0.39597006335686963 1.6506510526785825
lowerneck -16.52461387538785 -2.8352444647914257 -1.4885401418478656
upperneck 21.498244665422167 -3.53518628672538 -0.1124747993004942
head 9.600275338421717 -1.7734367373376467 -0.27022683732046315
lclavicle -3.616362944336633e-16 5.803562888322987e-16
lhumerus -30.377850728549312 2.813215324149079 80.86906035847956
lradius 21.16608104411184
lwrist 7.458688645036581
lhand -28.78094386427111 19.49949478228856
lfingers 7.12502
lthumb -2.448655409909858 49.0932637176881
rclavicle -3.6163629434637374e-16 5.803562888910919e-16
rhumerus -25.906988981733846 -18.0871207034781 -76.1636881091755
rradius 30.791857673814835
rwrist 4.076362120342784
rhand -18.024452335166785 21.432587246549655
rfingers 7.12502
rthumb 8.72369011185191 -7.60838585409364
49
root -0.09089127158749677 17.83862753567985 8.890504206796992 -1.6283015160141705 -7.034204445749102 -4.123576946481955
lfemur -7.498413767113712 2.2758412813022657 -13.584979481169306
ltibia 53.89203154876834
lfoot -5.089266208045823 -2.7399645009444082
ltoes -5.2200706531558225
rfemur -12.961571043160554 6.891584402207017 29.31041811679053
rtibia 32.32314909201916
rfoot -21.98067606301422 -10.473516505879278
rtoes -2.821973769358322
lowerback 10.51844578347409 0.5178663208762477 1.9918827814866766
upperback 0.3466956480490931 0.9728482659435032 1.9068038920653232
thorax -5.741984825938249 0.5404972059774701 1.41163542785658
lowerneck -16.547527451000608 -2.8747340577222107 -1.4619586885687343
upperneck 21.413463763063543 -3.6044455105766513 -0.21927371437108645
head 9.567609932173903 -1.804702947492687 -0.34970872069249126
lclavicle -3.6163629442659217e-16 5.803562888367152e-16
lhumerus -31.2550440916845 3.3503424260548313 80.91355264663864
lradius 21.087504285064753
lwrist 7.230867886209214
lhand -28.393528531039436 20.087442882680758
lfingers 7.12502
lthumb -2.0496283963714124 49.93250899426543
rclavicle -3.6163629434867603e-16 5.803562888892704e-16
rhumerus -25.14288060629491 -16.919229912700068 -76.18370089544192
rradius 31.064628663420763
rwrist 4.040712877245719
rhand -18.030030830169416 21.543817605458294
rfingers 7.12502
rthumb 8.738050001192791 -7.223387595827293
50
root -0.06521191743525723 17.875129882529766 9.318684181441395 -1.3002046536375371 -6.501769084492118 -4.981715267337098
lfemur -9.98871363826592 2.4770546689473907 -12.714796602178732
ltibia 55.651989752073256
lfoot -5.8812618132127765 -2.7913620076404544
ltoes -6.406335084168495
rfemur -11.173092767830676 7.0458514189786055 30.15023961470306
rtibia 30.43761089014893
rfoot -21.692337048841082 -10.585741058580403
rtoes -3.9645701767576096
lowerback 10.493557792505094 0.6175926051540832 2.848125825123265
upperback 0.30401286955902473 1.3236858772394768 2.0444656080306545
thorax -5.812417441343928 0.6817477119458333 1.017946565819972
lowerneck -16.51672008448567 -2.9139149689934816 -1.442914710077878
upperneck 21.29773209994611 -3.6649062634047933 -0.3061493127429342
head 9.522167507952144 -1.8315090215025571 -0.41069912577230344
lclavicle -3.6163629442900746e-16 5.803562888345962e-16
lhumerus -32.32539424572746 3.791809152613153 80.8431660076127
lradius 21.15863887034084
lwrist 7.5813264599140435
lhand -28.259209481665753 20.096186404365447
lfingers 7.12502
lthumb -1.9394343060172643 49.925847999935996
rclavicle -3.616362943401136e-16 5.803562888944455e-16
rhumerus -24.504116857591125 -15.841125657045236 -76.19646707666666
rradius 31.37035542965799
rwrist 3.7139876068406705
rhand -18.037021116860053 21.667544846846862
rfingers 7.12502
rthumb 8.628502034667212 -6.860395320422892
